<svg width="100" height="100" viewBox="0 0 100 100" fill="none" xmlns="http://www.w3.org/2000/svg">
<g clip-path="url(#clip0_56_2)">
<path d="M55.1962 19L86.3731 73C88.6825 77 85.7957 82 81.1769 82H18.8231C14.2043 82 11.3175 77 13.6269 73L44.8038 19C47.1132 15 52.8868 15 55.1962 19Z" fill="white" stroke="#D9D9D9" stroke-width="2"/>
<path d="M47.4805 43.7598C47.4805 43.1152 47.7734 42.793 48.3594 42.793H50.1875C50.7734 42.793 51.0664 43.1152 51.0664 43.7598L50.6973 60.3535C50.6973 60.8809 50.4336 61.1445 49.9062 61.1445H48.6406C48.1133 61.1445 47.8496 60.8809 47.8496 60.3535L47.4805 43.7598ZM48.2891 68C47.7617 68 47.498 67.7363 47.498 67.209V65.0645C47.498 64.5371 47.7617 64.2734 48.2891 64.2734H50.2578C50.7852 64.2734 51.0488 64.5371 51.0488 65.0645V67.209C51.0488 67.7363 50.7852 68 50.2578 68H48.2891Z" fill="#D9D9D9"/>
</g>
<defs>
<clipPath id="clip0_56_2">
<rect width="100" height="100" fill="white"/>
</clipPath>
</defs>
</svg>
