<svg width="100" height="100" viewBox="0 0 100 100" fill="none" xmlns="http://www.w3.org/2000/svg">
<g clip-path="url(#clip0_56_2)">
<path d="M55.1962 11L86.3731 65C88.6825 69 85.7957 74 81.1769 74H18.8231C14.2043 74 11.3175 69 13.6269 65L44.8038 11C47.1132 7 52.8868 7 55.1962 11Z" fill="white" stroke="#D9D9D9" stroke-width="2"/>
<path d="M47.4805 35.7598C47.4805 35.1152 47.7734 34.793 48.3594 34.793H50.1875C50.7734 34.793 51.0664 35.1152 51.0664 35.7598L50.6973 52.3535C50.6973 52.8809 50.4336 53.1445 49.9062 53.1445H48.6406C48.1133 53.1445 47.8496 52.8809 47.8496 52.3535L47.4805 35.7598ZM48.2891 60C47.7617 60 47.498 59.7363 47.498 59.209V57.0645C47.498 56.5371 47.7617 56.2734 48.2891 56.2734H50.2578C50.7852 56.2734 51.0488 56.5371 51.0488 57.0645V59.209C51.0488 59.7363 50.7852 60 50.2578 60H48.2891Z" fill="#D9D9D9"/>
</g>
<defs>
<clipPath id="clip0_56_2">
<rect width="100" height="100" fill="white"/>
</clipPath>
</defs>
</svg>
