<svg width="172" height="99" viewBox="0 0 172 99" fill="none" xmlns="http://www.w3.org/2000/svg">
<path d="M8.352 48.504C8.16 48.504 7.824 48.424 7.344 48.264C6.864 48.136 6.416 47.944 6 47.688C5.584 47.432 5.344 47.144 5.28 46.824C5.088 45.576 4.992 43.992 4.992 42.072C4.992 40.856 5.024 39.528 5.088 38.088C5.152 36.648 5.248 35.192 5.376 33.72L4.128 33.624C3.808 33.592 3.472 33.384 3.12 33C2.768 32.616 2.48 32.216 2.256 31.8C2.032 31.352 1.92 31.032 1.92 30.84C1.92 30.552 2.112 30.312 2.496 30.12C2.912 29.896 3.424 29.72 4.032 29.592C4.64 29.432 5.216 29.32 5.76 29.256C6.016 26.696 6.304 24.264 6.624 21.96C6.976 19.624 7.28 17.672 7.536 16.104C7.184 16.552 6.848 16.936 6.528 17.256C6.24 17.576 6.048 17.736 5.952 17.736V17.592C6.08 17.304 6.288 16.808 6.576 16.104C6.864 15.4 7.184 14.68 7.536 13.944C7.92 13.176 8.288 12.52 8.64 11.976C8.992 11.432 9.264 11.16 9.456 11.16C9.872 11.16 10.352 11.368 10.896 11.784C11.44 12.168 11.712 12.568 11.712 12.984V13.128C10.944 14.536 10.288 16.232 9.744 18.216C9.232 20.168 8.816 22.264 8.496 24.504C8.176 26.744 7.936 29 7.776 31.272L8.544 31.464C10.592 30.92 12.576 30.136 14.496 29.112C16.448 28.088 18.304 26.936 20.064 25.656C21.824 24.376 23.072 23.176 23.808 22.056C24.576 20.904 24.96 19.832 24.96 18.84C24.96 17.72 24.56 16.68 23.76 15.72C22.96 14.76 21.872 13.912 20.496 13.176C19.152 12.408 17.648 11.752 15.984 11.208C14.32 10.664 12.608 10.232 10.848 9.912C9.12 9.592 7.472 9.384 5.904 9.288C5.712 9.288 5.328 9.288 4.752 9.288C4.176 9.256 3.552 9.24 2.88 9.24C2.208 9.208 1.632 9.16 1.152 9.096C0.672 9 0.432 8.872 0.432 8.712C0.432 8.584 0.608 8.456 0.96 8.328C2.176 7.848 3.296 7.512 4.32 7.32C5.376 7.096 6.368 6.984 7.296 6.984C7.968 6.984 8.944 7.112 10.224 7.368C11.504 7.592 12.912 7.944 14.448 8.424C16.016 8.904 17.584 9.48 19.152 10.152C20.752 10.824 22.224 11.592 23.568 12.456C24.912 13.32 25.984 14.264 26.784 15.288C27.616 16.312 28.032 17.4 28.032 18.552C28.032 19.512 27.616 20.472 26.784 21.432C25.984 22.36 24.88 23.496 23.472 24.84C22.448 25.832 21.216 26.776 19.776 27.672C18.368 28.568 16.88 29.384 15.312 30.12C13.776 30.824 12.272 31.448 10.8 31.992C13.552 32.76 16.128 33.704 18.528 34.824C20.928 35.912 23.28 37.128 25.584 38.472C25.904 38.664 26.064 38.824 26.064 38.952C26.064 39.08 25.984 39.144 25.824 39.144C25.728 39.144 25.648 39.112 25.584 39.048C24.72 38.728 23.456 38.264 21.792 37.656C20.16 37.048 18.416 36.456 16.56 35.88C16.08 35.72 15.36 35.528 14.4 35.304C13.44 35.08 12.368 34.856 11.184 34.632C10 34.376 8.816 34.168 7.632 34.008C7.6 34.584 7.584 35.176 7.584 35.784C7.584 36.36 7.584 36.92 7.584 37.464C7.584 38.52 7.6 39.56 7.632 40.584C7.696 41.576 7.76 42.504 7.824 43.368C7.984 42.888 8.128 42.376 8.256 41.832C8.384 41.288 8.464 41.016 8.496 41.016C8.56 41.016 8.592 41.272 8.592 41.784C8.592 42.2 8.576 42.744 8.544 43.416C8.544 44.088 8.528 44.776 8.496 45.48C8.496 46.184 8.496 46.808 8.496 47.352C8.496 47.608 8.496 47.832 8.496 48.024C8.496 48.248 8.512 48.392 8.544 48.456C8.544 48.488 8.48 48.504 8.352 48.504ZM37.3785 43.08C37.0265 43.08 36.6425 42.952 36.2265 42.696C35.8105 42.408 35.5225 42.104 35.3625 41.784C35.3625 41.048 35.4585 40.04 35.6505 38.76C35.8425 37.48 36.0505 36.168 36.2745 34.824C36.5305 33.448 36.7545 32.28 36.9465 31.32C36.3705 32.216 35.7145 33.192 34.9785 34.248C34.2425 35.304 33.4905 36.296 32.7225 37.224C31.9545 38.12 31.1705 38.872 30.3705 39.48C29.6025 40.056 28.8825 40.344 28.2105 40.344C27.5385 40.344 27.0105 40.12 26.6265 39.672C26.2425 39.192 26.0505 38.648 26.0505 38.04C26.0505 37.88 26.0825 37.672 26.1465 37.416C26.4345 35.944 26.9945 34.568 27.8265 33.288C28.6905 31.976 29.6665 30.824 30.7545 29.832C31.8745 28.84 32.9785 28.056 34.0665 27.48C35.1545 26.904 36.0825 26.616 36.8505 26.616C37.4265 26.616 37.9705 26.744 38.4825 27C39.0265 27.224 39.5385 27.608 40.0185 28.152C40.1145 28.248 40.1625 28.36 40.1625 28.488C40.1625 28.648 40.0665 28.808 39.8745 28.968C39.6505 29.736 39.4105 30.664 39.1545 31.752C38.9305 32.808 38.7065 33.912 38.4825 35.064C38.2905 36.184 38.1305 37.224 38.0025 38.184C37.8745 39.144 37.8105 39.88 37.8105 40.392C37.8105 40.744 37.8585 40.92 37.9545 40.92C38.2105 40.92 38.5305 40.648 38.9145 40.104C39.3305 39.56 39.7305 38.936 40.1145 38.232C40.4985 37.528 40.8345 36.904 41.1225 36.36C41.4425 35.816 41.6345 35.544 41.6985 35.544C41.7945 35.544 41.8425 35.672 41.8425 35.928C41.8425 36.472 41.6665 37.144 41.3145 37.944C40.9625 38.744 40.5305 39.544 40.0185 40.344C39.5385 41.112 39.0425 41.768 38.5305 42.312C38.0505 42.824 37.6665 43.08 37.3785 43.08ZM28.5945 38.568C29.0425 38.568 29.6025 38.312 30.2745 37.8C30.9785 37.288 31.6985 36.632 32.4345 35.832C33.2025 35.032 33.9385 34.184 34.6425 33.288C35.3785 32.392 36.0025 31.544 36.5145 30.744C37.0585 29.912 37.4425 29.24 37.6665 28.728C37.0265 28.728 36.2905 28.968 35.4585 29.448C34.6265 29.896 33.7785 30.488 32.9145 31.224C32.0505 31.928 31.2505 32.712 30.5145 33.576C29.7785 34.408 29.1865 35.224 28.7385 36.024C28.2905 36.824 28.0665 37.512 28.0665 38.088C28.0665 38.408 28.2425 38.568 28.5945 38.568ZM43.6035 26.088C43.2195 26.088 42.8835 26.024 42.5955 25.896C42.4035 25.8 42.3075 25.64 42.3075 25.416C42.3075 25.096 42.4675 24.696 42.7875 24.216C43.1395 23.736 43.5555 23.304 44.0355 22.92C44.5475 22.536 45.0115 22.344 45.4275 22.344C45.6515 22.344 45.7635 22.424 45.7635 22.584C45.7635 22.712 45.6515 22.872 45.4275 23.064C45.0755 23.416 44.8675 23.832 44.8035 24.312C44.7395 24.792 44.6435 25.208 44.5155 25.56C44.4195 25.912 44.1155 26.088 43.6035 26.088ZM36.5955 65.016C36.0195 65.016 35.5875 64.68 35.2995 64.008C36.1315 62.216 36.9795 60.296 37.8435 58.248C38.6755 56.2 39.4755 54.104 40.2435 51.96C41.0435 49.816 41.7155 47.72 42.2595 45.672C41.3635 46.376 40.4515 47.144 39.5235 47.976C38.5955 48.808 37.7155 49.768 36.8835 50.856C35.8275 52.168 35.0275 53.72 34.4835 55.512C33.9075 57.336 33.6195 59.016 33.6195 60.552C33.6195 62.408 34.0035 63.8 34.7715 64.728C34.8675 64.824 34.9155 64.888 34.9155 64.92C34.8835 64.952 34.8515 64.968 34.8195 64.968C34.6915 64.968 34.5475 64.92 34.3875 64.824C34.1955 64.728 34.0195 64.584 33.8595 64.392C33.2195 63.72 32.7555 62.904 32.4675 61.944C32.1475 61.016 31.9875 60.008 31.9875 58.92C31.9875 57.672 32.2275 56.408 32.7075 55.128C33.1875 53.848 33.8915 52.648 34.8195 51.528C36.1635 49.896 37.4915 48.536 38.8035 47.448C40.1155 46.392 41.3795 45.352 42.5955 44.328C43.0755 42.44 43.4115 40.6 43.6035 38.808C43.7635 37.4 43.8595 36.168 43.8915 35.112C43.9555 34.056 43.9875 33.128 43.9875 32.328C43.9875 31.528 43.9555 30.84 43.8915 30.264C43.8275 29.688 43.7635 29.16 43.6995 28.68C43.6995 28.648 43.7155 28.632 43.7475 28.632C43.9075 28.632 44.2435 28.824 44.7555 29.208C45.2675 29.592 45.5555 30.088 45.6195 30.696C45.7155 31.656 45.7635 32.68 45.7635 33.768C45.7635 35.048 45.6835 36.392 45.5235 37.8C45.3955 39.208 45.2035 40.648 44.9475 42.12C45.6835 41.32 46.4035 40.424 47.1075 39.432C47.8435 38.408 48.5315 37.224 49.1715 35.88C49.3635 35.496 49.5395 35.304 49.6995 35.304C49.8275 35.304 49.8915 35.416 49.8915 35.64C49.8915 35.992 49.7315 36.504 49.4115 37.176C49.1235 37.848 48.7715 38.536 48.3555 39.24C47.9395 39.944 47.5235 40.552 47.1075 41.064C46.7555 41.544 46.3715 41.992 45.9555 42.408C45.5395 42.824 45.1075 43.24 44.6595 43.656C44.2435 45.896 43.7475 48.088 43.1715 50.232C42.5955 52.376 42.0035 54.344 41.3955 56.136C40.8195 57.928 40.2915 59.432 39.8115 60.648C39.3635 61.896 39.0435 62.712 38.8515 63.096C38.4675 63.8 38.0835 64.296 37.6995 64.584C37.3155 64.872 36.9475 65.016 36.5955 65.016ZM52.0054 48.6C51.7494 48.6 51.3334 48.36 50.7574 47.88C50.1814 47.432 49.8134 46.904 49.6534 46.296C49.4294 45.496 49.2854 44.44 49.2214 43.128C49.1574 41.816 49.1254 40.392 49.1254 38.856C49.1254 37.224 49.1414 35.56 49.1734 33.864C49.2054 32.136 49.2214 30.552 49.2214 29.112C49.2214 28.408 49.2214 27.768 49.2214 27.192C49.2214 26.584 49.1894 26.056 49.1254 25.608C49.0614 25.544 48.8694 25.496 48.5494 25.464C48.2614 25.4 47.9734 25.352 47.6854 25.32C47.4294 25.256 47.3014 25.224 47.3014 25.224C47.3014 25.16 47.5414 25.016 48.0214 24.792C48.5334 24.536 49.2534 24.408 50.1814 24.408C51.1094 24.408 51.7174 24.584 52.0054 24.936C52.2934 25.288 52.4374 25.592 52.4374 25.848C52.4374 25.944 52.4374 26.04 52.4374 26.136C52.4374 26.232 52.4214 26.328 52.3894 26.424C52.1334 27.672 51.9414 28.808 51.8134 29.832C51.6854 30.824 51.5894 31.848 51.5254 32.904C51.4614 33.928 51.4134 35.128 51.3814 36.504C51.4134 36.408 51.5574 35.912 51.8134 35.016C52.1014 34.088 52.5654 32.648 53.2054 30.696C53.7174 29.064 54.1334 28.008 54.4534 27.528C54.7734 27.016 55.0454 26.744 55.2694 26.712C55.3334 26.744 55.5094 26.808 55.7974 26.904C56.0854 27 56.3734 27.16 56.6614 27.384C56.9494 27.576 57.0934 27.832 57.0934 28.152V28.248C56.8694 29.432 56.6614 30.776 56.4694 32.28C56.3094 33.784 56.2294 35.24 56.2294 36.648C56.2294 37.544 56.2614 38.376 56.3254 39.144C56.4214 39.912 56.5814 40.536 56.8054 41.016C56.8054 40.888 56.9014 40.472 57.0934 39.768C57.3174 39.064 57.5734 38.264 57.8614 37.368C58.1494 36.44 58.4214 35.56 58.6774 34.728C58.9334 33.896 59.1254 33.272 59.2534 32.856C59.5094 32.088 59.7334 31.576 59.9254 31.32C60.1494 31.064 60.4534 30.936 60.8374 30.936C61.3814 30.936 61.7654 31.272 61.9894 31.944C62.2454 32.584 62.4054 33.384 62.4694 34.344C62.5334 35.304 62.5814 36.264 62.6134 37.224C62.6454 38.184 62.7094 39 62.8054 39.672C62.9334 40.312 63.1734 40.632 63.5254 40.632C63.9414 40.632 64.3734 40.328 64.8214 39.72C65.2694 39.08 65.7014 38.344 66.1174 37.512C66.5654 36.68 66.9654 35.96 67.3174 35.352C67.6694 34.712 67.9414 34.392 68.1334 34.392C68.2294 34.392 68.2774 34.472 68.2774 34.632C68.2774 34.76 68.2294 34.968 68.1334 35.256C67.6854 36.344 67.2054 37.432 66.6934 38.52C66.1814 39.608 65.6534 40.52 65.1094 41.256C64.5654 41.992 63.9894 42.36 63.3814 42.36C62.6134 42.36 62.0054 42.136 61.5574 41.688C61.2374 41.4 60.9814 40.872 60.7894 40.104C60.5974 39.304 60.4374 38.472 60.3094 37.608C60.1814 36.744 60.0534 36.008 59.9254 35.4C59.8294 34.76 59.7174 34.44 59.5894 34.44C59.4934 34.44 59.3494 34.728 59.1574 35.304C58.9974 35.848 58.8214 36.536 58.6294 37.368C58.4374 38.2 58.2454 39.048 58.0534 39.912C57.8934 40.744 57.7494 41.48 57.6214 42.12C57.5254 42.76 57.4774 43.16 57.4774 43.32C57.4774 43.704 57.3014 43.928 56.9494 43.992C56.6294 44.056 56.2134 44.088 55.7014 44.088C55.4774 44.088 55.2534 43.736 55.0294 43.032C54.8054 42.296 54.5974 41.368 54.4054 40.248C54.2454 39.096 54.1174 37.88 54.0214 36.6C53.9254 35.32 53.8774 34.136 53.8774 33.048C53.8774 32.696 53.8774 32.376 53.8774 32.088C53.8774 31.768 53.8934 31.48 53.9254 31.224C53.4134 32.696 52.8854 34.488 52.3414 36.6C51.7974 38.68 51.5254 40.936 51.5254 43.368C51.5254 44.36 51.5734 45.288 51.6694 46.152C51.7654 47.016 51.9254 47.688 52.1494 48.168C52.1814 48.232 52.1974 48.312 52.1974 48.408C52.1974 48.536 52.1334 48.6 52.0054 48.6ZM70.7779 29.304C70.5859 29.304 70.3779 29.272 70.1539 29.208C69.9619 29.112 69.7699 29.016 69.5779 28.92C69.4499 28.824 69.3859 28.696 69.3859 28.536C69.3859 28.248 69.5619 27.896 69.9139 27.48C70.2659 27.032 70.7139 26.648 71.2579 26.328C71.8019 26.008 72.3299 25.848 72.8419 25.848C73.1299 25.848 73.2739 25.928 73.2739 26.088C73.2739 26.216 73.1299 26.376 72.8419 26.568C72.4899 26.824 72.2339 27.176 72.0739 27.624C71.9139 28.072 71.7539 28.472 71.5939 28.824C71.4339 29.144 71.1619 29.304 70.7779 29.304ZM68.1859 43.8C67.5779 43.8 67.1619 43.608 66.9379 43.224C66.7139 42.84 66.6019 42.248 66.6019 41.448C66.6019 41.032 66.6179 40.584 66.6499 40.104C66.6819 39.624 66.7459 39.08 66.8419 38.472C67.1299 36.296 67.4499 34.568 67.8019 33.288C68.1539 31.976 68.6019 31.32 69.1459 31.32C69.5939 31.32 69.9939 31.576 70.3459 32.088C70.6979 32.6 70.9379 32.968 71.0659 33.192C70.8419 33.608 70.5379 34.28 70.1539 35.208C69.8019 36.136 69.4819 37.112 69.1939 38.136C68.9059 39.16 68.7619 40.056 68.7619 40.824C68.7619 41.592 68.9379 41.976 69.2899 41.976C69.5779 41.976 69.8979 41.816 70.2499 41.496C70.6339 41.176 70.9859 40.824 71.3059 40.44C71.6579 40.056 71.8819 39.784 71.9779 39.624C73.0659 37.992 73.7539 36.744 74.0419 35.88C74.3619 35.016 74.6659 34.584 74.9539 34.584C75.0819 34.584 75.1459 34.68 75.1459 34.872C75.1459 35 75.1139 35.144 75.0499 35.304C75.0179 35.432 74.9699 35.608 74.9059 35.832C74.7139 36.344 74.4099 37.048 73.9939 37.944C73.5779 38.808 73.0659 39.688 72.4579 40.584C71.8819 41.48 71.2259 42.248 70.4899 42.888C69.7859 43.496 69.0179 43.8 68.1859 43.8Z" fill="white"/>
<path d="M68.772 80.2368C67.8995 80.5203 67.1276 80.4571 66.456 80.0472C65.8114 79.651 65.2461 79.0159 64.7603 78.1419C64.281 77.2883 63.8634 76.3136 63.5074 75.218C63.2767 74.5079 63.0465 73.7303 62.8168 72.8852C62.6073 72.0336 62.405 71.1348 62.2098 70.1888C61.8233 70.449 61.4436 70.6957 61.0708 70.929C60.6914 71.142 60.3054 71.3348 59.9128 71.5072C59.649 71.5929 59.3449 71.658 59.0005 71.7026C58.6495 71.727 58.3394 71.7044 58.07 71.6349C57.7804 71.5719 57.6059 71.4492 57.5466 71.2666C57.4807 71.0637 57.5634 70.8349 57.7947 70.5803C57.958 70.3927 58.2228 70.1721 58.589 69.9185C58.9756 69.6583 59.3281 69.4316 59.6466 69.2384C59.9652 69.0451 60.1245 68.9485 60.1245 68.9485C60.1448 68.9419 60.165 68.9353 60.1853 68.9288C60.199 68.9019 60.2059 68.8884 60.2059 68.8884C60.2262 68.8818 60.2396 68.8887 60.2462 68.909C60.2665 68.9024 60.2766 68.8991 60.2766 68.8991C60.303 68.9802 60.2376 69.1585 60.0803 69.4339C59.923 69.7093 59.8609 69.8978 59.8939 69.9992C59.907 70.0398 59.9441 70.0502 60.0049 70.0304C60.0658 70.0106 60.1777 69.9407 60.3405 69.8205C60.5916 69.6267 60.8427 69.433 61.0937 69.2392C61.3585 69.0186 61.6233 68.798 61.8881 68.5774C61.596 67.0572 61.3243 65.5305 61.0728 63.9971C60.835 62.4369 60.6338 60.9546 60.469 59.5501C60.2977 58.1253 60.1654 56.8897 60.0722 55.8433C59.9763 56.0314 59.9068 56.3008 59.8636 56.6513C59.8408 56.9952 59.8113 57.3188 59.7753 57.6221C59.7393 57.9254 59.6604 58.0968 59.5387 58.1364C59.4981 58.1496 59.4646 58.1156 59.4382 58.0344C59.4119 57.9533 59.4035 57.7204 59.4132 57.336C59.4228 56.9515 59.4566 56.5031 59.5145 55.9908C59.5723 55.4785 59.6436 54.9731 59.7284 54.4745C59.8268 53.9491 59.9415 53.508 60.0724 53.1515C60.2235 52.7883 60.3904 52.5771 60.573 52.5177C60.7759 52.4518 61.0356 52.4572 61.3521 52.5338C61.6686 52.6104 61.9613 52.7172 62.2301 52.8541C62.5126 52.9642 62.6736 53.0801 62.7132 53.2019C62.733 53.2627 62.736 53.3066 62.7223 53.3335C62.36 54.8419 62.1869 56.76 62.203 59.0876C62.2125 61.3949 62.526 64.0857 63.1436 67.16C63.1431 67.2275 63.1593 67.312 63.1922 67.4134C64.157 66.5167 65.1223 65.5526 66.0882 64.5209C67.0677 63.4625 67.9764 62.3933 68.8144 61.3135C69.6727 60.2271 70.406 59.1701 71.0142 58.1425C71.6361 57.0881 72.0686 56.1064 72.3116 55.1975C72.575 54.282 72.5945 53.4793 72.3704 52.7894C72.1265 52.0387 71.5942 51.5051 70.7735 51.1886C69.9529 50.872 68.9522 50.7261 67.7713 50.7509C66.5839 50.7553 65.3248 50.8841 63.9938 51.1371C62.6629 51.3901 61.3684 51.721 60.1105 52.1297C59.0351 52.4791 58.0339 52.8493 57.1066 53.2403C56.1931 53.6044 55.4117 53.8919 54.7625 54.1029C54.3161 54.2479 54.0699 54.2494 54.0237 54.1074C53.9973 54.0262 54.0727 53.8784 54.2497 53.6638C55.039 52.7793 55.8268 52.0972 56.613 51.6174C57.3992 51.1376 58.1677 50.7758 58.9184 50.5319C59.6691 50.2879 60.6085 50.0724 61.7365 49.8854C62.858 49.678 64.0363 49.5419 65.2714 49.4771C66.5267 49.4056 67.7273 49.4417 68.8731 49.5853C70.0123 49.7087 70.9986 49.9827 71.8319 50.4073C72.6586 50.8116 73.1973 51.3992 73.4478 52.1702C73.7444 53.0832 73.7527 54.2133 73.4726 55.5605C73.186 56.8873 72.5911 58.3704 71.6882 60.0096C71.3118 60.7152 70.7147 61.6045 69.897 62.6777C69.093 63.7241 68.1502 64.8267 67.0688 65.9856C65.9807 67.1242 64.8224 68.1847 63.5938 69.1671C63.7252 69.6404 63.8598 70.1238 63.9977 70.6173C64.1559 71.1042 64.3109 71.581 64.4625 72.0477C65.0888 73.9752 65.6879 75.474 66.26 76.5443C66.8386 77.6349 67.3897 78.3643 67.9131 78.7326C68.4365 79.1009 68.9316 79.2092 69.3982 79.0576C69.7431 78.9455 70.0041 78.7822 70.1811 78.5676C70.3851 78.3668 70.5479 78.2466 70.6696 78.207C70.7711 78.1741 70.8383 78.2083 70.8712 78.3098C70.8844 78.3503 70.8395 78.4883 70.7365 78.7237C70.6402 78.9793 70.4357 79.2476 70.1233 79.5286C69.8108 79.8095 69.3604 80.0456 68.772 80.2368ZM84.3139 67.3136C84.0907 67.3861 83.8209 67.384 83.5044 67.3074C83.1813 67.2105 82.9361 67.0771 82.7687 66.9072C82.6171 66.4405 82.4703 65.7816 82.3283 64.9305C82.1864 64.0794 82.048 63.2047 81.9131 62.3064C81.7919 61.3812 81.6933 60.5945 81.6173 59.9463C81.4367 60.633 81.2218 61.387 80.9727 62.2082C80.7236 63.0293 80.4512 63.8132 80.1554 64.5598C79.8531 65.2861 79.5109 65.9245 79.1289 66.4748C78.7606 66.9982 78.3635 67.3291 77.9374 67.4675C77.5113 67.606 77.1304 67.5727 76.7946 67.3678C76.4523 67.1426 76.2185 66.8372 76.0932 66.4517C76.0603 66.3503 76.0377 66.2118 76.0255 66.0363C75.9049 65.0437 75.9765 64.0559 76.2403 63.0729C76.5178 62.063 76.8993 61.1316 77.3848 60.2785C77.8906 59.4188 78.429 58.6942 79.0002 58.1049C79.5714 57.5155 80.1004 57.1418 80.5874 56.9835C80.9526 56.8649 81.3239 56.834 81.7012 56.8908C82.0923 56.9208 82.496 57.0587 82.9124 57.3048C82.9931 57.3459 83.0466 57.407 83.0729 57.4881C83.1059 57.5896 83.078 57.7108 82.9892 57.8518C83.0054 58.3849 83.0444 59.0227 83.1063 59.7653C83.1818 60.481 83.2672 61.2271 83.3625 62.0037C83.4715 62.7534 83.5843 63.4457 83.7009 64.0808C83.8175 64.7158 83.9286 65.1956 84.0341 65.5203C84.1066 65.7435 84.1733 65.8452 84.2341 65.8254C84.3964 65.7726 84.5433 65.5343 84.6747 65.1102C84.8264 64.6796 84.9515 64.2016 85.0499 63.6761C85.1483 63.1506 85.2328 62.6858 85.3033 62.2815C85.3942 61.8707 85.4599 61.6587 85.5004 61.6455C85.5613 61.6257 85.6181 61.697 85.6709 61.8593C85.7829 62.2042 85.8098 62.6665 85.7514 63.2463C85.693 63.826 85.5839 64.4223 85.4241 65.035C85.278 65.6208 85.0987 66.1389 84.8861 66.5893C84.6872 67.0128 84.4965 67.2542 84.3139 67.3136ZM77.815 66.2624C78.099 66.1701 78.4014 65.8924 78.722 65.4293C79.0628 64.9597 79.3842 64.3954 79.6861 63.7366C80.0082 63.0711 80.3001 62.3818 80.5619 61.6687C80.844 60.949 81.0649 60.2828 81.2247 59.6701C81.3983 59.0305 81.5033 58.5253 81.5398 58.1545C81.134 58.2864 80.7168 58.5902 80.2882 59.0659C79.853 59.5214 79.4373 60.0714 79.0411 60.716C78.6383 61.3404 78.2926 62.0023 78.0039 62.7017C77.7087 63.3809 77.5014 64.0202 77.3822 64.6197C77.263 65.2193 77.2627 65.7016 77.3813 66.0668C77.4473 66.2697 77.5918 66.3349 77.815 66.2624ZM79.4325 55.811C79.3311 55.844 79.2641 55.776 79.2317 55.6071C79.2261 55.4519 79.3118 55.267 79.4889 55.0525C79.5705 54.9587 79.7273 54.7507 79.9591 54.4286C80.1909 54.1066 80.4397 53.7678 80.7055 53.4122C80.9648 53.0364 81.1933 52.7042 81.3911 52.4156C81.6093 52.1204 81.7422 51.9426 81.7898 51.8823C81.8989 51.7347 81.9704 51.6442 82.0044 51.6107C82.0587 51.5706 82.1163 51.5407 82.1771 51.5209C82.2786 51.488 82.4333 51.5498 82.6412 51.7066C82.8492 51.8633 82.9493 51.999 82.9417 52.1137C82.9478 52.2014 82.8418 52.3929 82.6236 52.6881C82.4055 52.9832 82.1331 53.3185 81.8064 53.6938C81.4935 54.0422 81.1772 54.3805 80.8576 54.7087C80.5315 55.0165 80.27 55.2473 80.0732 55.401C79.7881 55.6282 79.5745 55.7649 79.4325 55.811ZM91.6699 67.5142C91.3859 67.6065 91.109 67.6517 90.8391 67.6496C89.9956 67.6769 89.2351 67.4418 88.5574 66.9442C87.9001 66.4399 87.3184 65.7541 86.8123 64.8868C86.3264 64.0128 85.9154 63.0584 85.5792 62.0237C85.3946 61.4556 85.2303 60.8809 85.0863 60.2996C84.9423 59.7183 84.8218 59.1406 84.725 58.5664C84.5116 57.3572 84.3296 56.0032 84.179 54.5043C84.0488 52.9989 83.9525 51.46 83.8902 49.8876C83.828 48.3152 83.8022 46.8207 83.813 45.404C83.85 44.9658 83.8899 44.6052 83.9325 44.3221C83.9751 44.0391 84.1415 43.8953 84.4316 43.8908C84.6543 43.8857 84.8902 43.9213 85.1392 43.9974C85.4019 44.0466 85.6205 44.1326 85.795 44.2553C86.5472 44.7063 87.1079 45.4999 87.477 46.6361C87.8132 47.6708 87.9894 48.9034 88.0055 50.3337C88.0151 51.7438 87.8927 53.1967 87.6385 54.6925C87.4046 56.1817 87.0565 57.5958 86.5943 58.9348C86.7941 60.1709 87.0654 61.3165 87.4082 62.3715C87.6785 63.2034 87.9898 63.9546 88.3423 64.6251C88.7151 65.2891 89.1292 65.8387 89.5846 66.2739C89.9731 66.6412 90.3358 66.8598 90.6725 66.9299C91.0296 66.9933 91.34 66.9821 91.6038 66.8964C91.8879 66.8042 92.125 66.671 92.3152 66.4971C92.5257 66.3165 92.6921 66.1727 92.8143 66.0657C92.9437 65.9115 93.0692 65.8147 93.191 65.7751C93.3533 65.7224 93.3999 65.7969 93.3309 65.9988C93.2828 66.1266 93.1257 66.3683 92.8599 66.7238C92.5941 67.0794 92.1975 67.3428 91.6699 67.5142ZM86.3822 57.5569C86.7018 56.3315 86.9441 55.0751 87.109 53.7878C87.2877 52.4736 87.3646 51.2261 87.3398 50.0453C87.3288 48.8376 87.1848 47.8077 86.9079 46.9556C86.8024 46.631 86.6731 46.3365 86.5199 46.0722C86.3871 45.8014 86.2235 45.5741 86.0293 45.3905C85.8998 47.3392 85.8573 49.3831 85.9018 51.522C85.9599 53.6341 86.1201 55.6457 86.3822 57.5569ZM90.8592 49.8776C90.7375 49.9171 90.599 49.9397 90.4438 49.9452C90.3023 49.9239 90.1608 49.9026 90.0193 49.8813C89.9183 49.8468 89.8514 49.7788 89.8184 49.6774C89.7591 49.4948 89.7982 49.2353 89.9357 48.8991C90.0666 48.5425 90.2715 48.2067 90.5505 47.8918C90.8295 47.5768 91.1313 47.3666 91.4559 47.2611C91.6385 47.2018 91.7463 47.2228 91.7793 47.3243C91.8056 47.4055 91.7473 47.5366 91.6042 47.7176C91.4338 47.9525 91.344 48.2284 91.3349 48.5454C91.3257 48.8624 91.3067 49.149 91.2777 49.4051C91.2422 49.641 91.1027 49.7985 90.8592 49.8776ZM94.4979 65.1149C93.9298 65.2995 93.4619 65.1711 93.0942 64.7298C92.7199 64.2682 92.3943 63.6114 92.1175 62.7592C91.8604 61.9679 91.6307 61.1229 91.4283 60.2241C91.2397 59.2984 91.0912 58.427 90.9827 57.6099C90.8879 56.7658 90.8628 56.0674 90.9075 55.5145C90.9456 54.9414 91.0661 54.6218 91.269 54.5559C91.4922 54.4834 91.7212 54.5324 91.956 54.7028C92.2045 54.8464 92.4224 55.0336 92.6095 55.2643C92.8169 55.4886 92.947 55.6818 92.9998 55.8441C92.9703 56.1677 92.9665 56.6737 92.9882 57.362C93.0237 58.0234 93.0789 58.7457 93.154 59.5288C93.2427 60.2851 93.325 60.9873 93.4011 61.6356C93.4908 62.2569 93.5752 62.6893 93.6543 62.9328C93.8917 63.6632 94.2031 63.9658 94.5886 63.8405C94.7509 63.7878 94.9 63.6945 95.0359 63.5606C95.2602 63.3532 95.4517 63.0105 95.6104 62.5328C95.7895 62.0484 95.942 61.5166 96.0678 60.9373C96.1871 60.3378 96.2926 59.7652 96.3844 59.2194C96.4697 58.6534 96.544 58.1918 96.6075 57.8347C96.6643 57.4573 96.713 57.2621 96.7536 57.2489C96.8347 57.2225 96.9017 57.2905 96.9544 57.4528C97.0138 57.6354 97.0383 57.9527 97.0282 58.4046C97.0114 58.8362 96.9573 59.2912 96.866 59.7695C96.8026 60.1266 96.7249 60.578 96.6331 61.1238C96.5413 61.6695 96.419 62.2252 96.2663 62.7907C96.107 63.336 95.884 63.8234 95.5974 64.253C95.3108 64.6826 94.9443 64.9699 94.4979 65.1149ZM100.717 65.4159C100.514 65.4818 100.177 65.4118 99.7065 65.2058C99.2626 65.0136 98.8873 64.6869 98.5805 64.2258C98.3873 63.9073 98.1748 63.4604 97.943 62.8852C97.7113 62.31 97.4767 61.6572 97.2394 60.9268C96.8439 59.7094 96.4389 58.3942 96.0246 56.981C95.6306 55.5613 95.2523 54.2935 94.8898 53.1776C94.7711 52.8124 94.6489 52.4708 94.5231 52.1527C94.4176 51.8281 94.3152 51.5473 94.2158 51.3105C94.162 51.2831 94.0304 51.2922 93.8209 51.3378C93.6251 51.3566 93.4327 51.3855 93.2435 51.4245C93.068 51.4367 92.9802 51.4428 92.9802 51.4428C92.967 51.4022 93.0895 51.2614 93.3477 51.0205C93.6196 50.7527 94.0498 50.5232 94.6381 50.3321C95.2468 50.1343 95.6853 50.1376 95.9536 50.3421C96.2356 50.5196 96.4063 50.6997 96.4656 50.8823C96.4788 50.9229 96.4953 50.9736 96.515 51.0344C96.5348 51.0953 96.5412 51.1493 96.5341 51.1965C96.6603 52.3443 96.8593 53.6816 97.131 55.2084C97.3962 56.7148 97.7892 58.2695 98.31 59.8723C98.4352 60.2578 98.5473 60.6028 98.6462 60.9071C98.7588 61.1846 98.8513 61.4349 98.9238 61.6581L99.0128 61.932C98.7654 60.7562 98.629 59.6117 98.6037 58.4983C98.5719 57.3647 98.5103 56.1397 98.4191 54.8235C98.3198 53.6894 98.259 52.8119 98.2367 52.191C98.2281 51.5433 98.2789 51.0782 98.389 50.7957C98.5128 50.4863 98.7065 50.2887 98.9703 50.203C99.3355 50.0844 99.6386 50.1541 99.8795 50.4123C100.12 50.6705 100.347 51.0568 100.559 51.5711C100.771 52.0855 101.009 52.6809 101.274 53.3576C101.532 54.014 101.867 54.7013 102.28 55.4195C102.9 56.4969 103.457 57.2466 103.953 57.6686C104.449 58.0907 104.809 58.2654 105.032 58.1929C105.296 58.1072 105.507 57.8592 105.665 57.4489C105.817 57.0183 105.942 56.5402 106.04 56.0148C106.139 55.4893 106.226 55.0346 106.304 54.6506C106.394 54.2398 106.501 54.0146 106.622 53.975C106.683 53.9552 106.73 53.9961 106.763 54.0975C106.79 54.1787 106.802 54.3204 106.8 54.5228C106.662 55.8238 106.523 56.8449 106.383 57.5859C106.235 58.3066 105.857 58.7659 105.249 58.9637C104.782 59.1153 104.25 59.064 103.651 58.8099C103.342 58.6861 102.993 58.4406 102.604 58.0733C102.229 57.6792 101.852 57.2412 101.471 56.7593C101.09 56.2774 100.729 55.8226 100.388 55.395C100.061 54.9405 99.7838 54.5708 99.5566 54.2857C99.3294 54.0006 99.1955 53.8647 99.1549 53.8778C99.1143 53.891 99.0565 53.9547 98.9814 54.0688C98.9266 54.1763 98.9119 54.3381 98.9373 54.5542C99.0011 55.9242 99.1225 57.2643 99.3014 58.5744C99.4941 59.8577 99.7012 61.0129 99.9228 62.0401C100.138 63.0469 100.331 63.8141 100.502 64.3416C100.588 64.6054 100.658 64.7847 100.711 64.8795C100.791 64.9881 100.841 65.0728 100.861 65.1337C100.907 65.2757 100.859 65.3698 100.717 65.4159ZM110.285 61.634C109.961 61.7395 109.621 61.6256 109.266 61.2923C108.938 60.9728 108.614 60.5284 108.294 59.9593C107.988 59.3633 107.7 58.7168 107.429 58.0199C107.151 57.3027 106.903 56.6093 106.685 55.9397L106.675 55.9093C106.419 55.8804 106.177 55.8583 105.947 55.843C105.712 55.8075 105.492 55.789 105.29 55.7875C105.149 55.7661 105.061 55.7048 105.028 55.6033C104.969 55.4207 105.015 55.1816 105.165 54.8859C105.336 54.5836 105.554 54.3896 105.817 54.3039C105.878 54.2841 105.976 54.2747 106.111 54.2757C106.118 54.296 106.141 54.2996 106.182 54.2864C105.688 52.6298 105.266 50.9501 104.915 49.2474C104.557 47.5243 104.259 45.9164 104.02 44.4236C103.796 42.904 103.627 41.6243 103.513 40.5845C103.413 39.5178 103.378 38.8226 103.407 38.499C103.437 38.108 103.453 37.7775 103.455 37.5077C103.478 37.2313 103.59 37.0601 103.793 36.9941C104.118 36.8887 104.475 36.9184 104.865 37.0832C105.276 37.2415 105.517 37.4323 105.59 37.6554L105.609 37.7163C105.678 37.5144 105.824 37.3772 106.048 37.3047C106.372 37.1993 106.679 37.2792 106.967 37.5445C107.275 37.8032 107.539 38.1324 107.759 38.5321C107.992 38.9049 108.151 39.2232 108.237 39.4869C108.494 40.2782 108.615 41.2034 108.601 42.2625C108.586 43.3215 108.486 44.4306 108.302 45.5895C108.111 46.7282 107.88 47.8464 107.609 48.944C107.331 50.0213 107.06 50.984 106.798 51.832C106.895 52.2713 106.993 52.7105 107.091 53.1498C107.189 53.5891 107.287 54.0283 107.385 54.4676L107.779 54.5414C108.365 53.7903 108.944 52.9514 109.518 52.0247C110.092 51.0981 110.622 50.1745 111.108 49.2539C111.607 48.3064 112.009 47.4358 112.312 46.6421C112.339 46.5883 112.373 46.5548 112.414 46.5416C112.474 46.5219 112.518 46.5525 112.544 46.6337C112.558 46.6743 112.561 46.7182 112.554 46.7653C112.399 47.5332 112.143 48.4016 111.785 49.3703C111.42 50.3188 111.005 51.2838 110.538 52.2652C110.086 53.2198 109.607 54.0932 109.102 54.8854C110.34 55.2456 111.558 55.6799 112.755 56.1882C113.973 56.6899 115.119 57.2147 116.194 57.7626C116.355 57.8448 116.456 57.9467 116.495 58.0685C116.541 58.2105 116.524 58.2947 116.443 58.3211C116.402 58.3342 116.379 58.3307 116.372 58.3104C115.894 58.1516 115.221 57.9441 114.353 57.6879C113.478 57.4114 112.552 57.1514 111.576 56.9078C111.28 56.8246 110.815 56.7064 110.182 56.5532C109.549 56.4 108.876 56.2599 108.161 56.1331L108.07 56.1627C108.05 56.1693 108.023 56.1894 107.989 56.2228C107.968 56.2294 107.935 56.2292 107.887 56.2221L108.115 56.9221C108.445 57.9365 108.802 58.8298 109.187 59.6018C109.587 60.3469 109.966 60.9974 110.326 61.5534C110.339 61.5939 110.326 61.6208 110.285 61.634ZM106.604 50.7174C106.889 49.5255 107.155 48.2726 107.401 46.959C107.641 45.625 107.785 44.3443 107.835 43.1168C107.885 41.8894 107.765 40.8293 107.475 39.9365C107.317 39.4496 107.09 39.0296 106.796 38.6766C106.502 38.3235 106.13 38.0744 105.679 37.9293C105.658 37.9359 105.635 37.9324 105.608 37.9187C105.587 39.7198 105.646 41.7307 105.785 43.9513C105.923 46.1719 106.196 48.4273 106.604 50.7174ZM122.505 54.9046C122.282 54.9771 122.012 54.9751 121.695 54.8985C121.372 54.8016 121.127 54.6681 120.96 54.4982C120.808 54.0316 120.661 53.3727 120.519 52.5215C120.377 51.6704 120.239 50.7957 120.104 49.8974C119.983 48.9722 119.884 48.1855 119.808 47.5373C119.628 48.2241 119.413 48.978 119.164 49.7992C118.914 50.6204 118.642 51.4043 118.346 52.1509C118.044 52.8772 117.702 53.5155 117.32 54.0658C116.952 54.5892 116.554 54.9201 116.128 55.0586C115.702 55.197 115.321 55.1638 114.986 54.9588C114.643 54.7336 114.409 54.4282 114.284 54.0427C114.251 53.9413 114.229 53.8028 114.216 53.6273C114.096 52.6347 114.167 51.6469 114.431 50.6639C114.709 49.6541 115.09 48.7226 115.576 47.8695C116.081 47.0098 116.62 46.2853 117.191 45.6959C117.762 45.1066 118.291 44.7328 118.778 44.5746C119.143 44.4559 119.515 44.425 119.892 44.4818C120.283 44.5118 120.687 44.6498 121.103 44.8958C121.184 44.9369 121.237 44.998 121.264 45.0792C121.297 45.1806 121.269 45.3019 121.18 45.4429C121.196 45.9759 121.235 46.6138 121.297 47.3563C121.373 48.072 121.458 48.8182 121.553 49.5947C121.662 50.3444 121.775 51.0368 121.892 51.6718C122.008 52.3068 122.119 52.7867 122.225 53.1113C122.297 53.3345 122.364 53.4362 122.425 53.4164C122.587 53.3637 122.734 53.1253 122.866 52.7013C123.017 52.2707 123.142 51.7926 123.241 51.2671C123.339 50.7417 123.424 50.2768 123.494 49.8726C123.585 49.4617 123.651 49.2497 123.691 49.2365C123.752 49.2167 123.809 49.288 123.862 49.4503C123.974 49.7952 124.001 50.2576 123.942 50.8373C123.884 51.4171 123.775 52.0133 123.615 52.626C123.469 53.2118 123.29 53.7299 123.077 54.1803C122.878 54.6038 122.687 54.8453 122.505 54.9046ZM116.006 53.8534C116.29 53.7611 116.592 53.4835 116.913 53.0204C117.254 52.5507 117.575 51.9865 117.877 51.3276C118.199 50.6622 118.491 49.9729 118.753 49.2597C119.035 48.54 119.256 47.8738 119.416 47.2611C119.589 46.6215 119.694 46.1163 119.731 45.7456C119.325 45.8774 118.908 46.1812 118.479 46.6569C118.044 47.1124 117.628 47.6624 117.232 48.3071C116.829 48.9314 116.483 49.5933 116.195 50.2928C115.9 50.9719 115.692 51.6112 115.573 52.2108C115.454 52.8103 115.454 53.2927 115.572 53.6579C115.638 53.8608 115.783 53.9259 116.006 53.8534ZM117.623 43.4021C117.522 43.435 117.455 43.367 117.423 43.1981C117.417 43.0429 117.503 42.8581 117.68 42.6435C117.761 42.5497 117.918 42.3417 118.15 42.0197C118.382 41.6976 118.631 41.3588 118.896 41.0033C119.156 40.6274 119.384 40.2952 119.582 40.0066C119.8 39.7114 119.933 39.5337 119.981 39.4733C120.09 39.3257 120.161 39.2352 120.195 39.2017C120.25 39.1616 120.307 39.1317 120.368 39.112C120.469 39.079 120.624 39.1409 120.832 39.2976C121.04 39.4544 121.14 39.5901 121.133 39.7047C121.139 39.7924 121.033 39.9839 120.815 40.2791C120.596 40.5743 120.324 40.9095 119.997 41.2848C119.684 41.6333 119.368 41.9716 119.048 42.2997C118.722 42.6076 118.461 42.8383 118.264 42.992C117.979 43.2192 117.765 43.3559 117.623 43.4021ZM122.951 42.8486C122.708 42.9277 122.481 42.9564 122.272 42.9345C122.131 42.9132 122.037 42.8316 121.991 42.6895C121.925 42.4866 121.944 42.2001 122.048 41.8298C122.172 41.4529 122.347 41.0933 122.572 40.751C122.818 40.402 123.073 40.1847 123.336 40.099C123.478 40.0529 123.566 40.0805 123.599 40.182C123.625 40.2631 123.587 40.3876 123.485 40.5555C123.334 40.8512 123.288 41.1578 123.346 41.4753C123.404 41.7929 123.429 42.0764 123.421 42.326C123.432 42.5689 123.276 42.7431 122.951 42.8486ZM126.527 68.9742C126.162 69.0928 125.819 68.9688 125.498 68.602C125.656 67.2944 125.798 65.9024 125.924 64.4259C126.03 62.956 126.105 61.4622 126.151 59.9446C126.216 58.4204 126.21 56.9531 126.133 55.5425C125.71 56.1734 125.29 56.8483 124.873 57.567C124.456 58.2857 124.096 59.0756 123.793 59.9369C123.394 60.9863 123.206 62.1351 123.23 63.3834C123.241 64.6585 123.404 65.783 123.721 66.7569C124.103 67.9337 124.633 68.7372 125.312 69.1673C125.392 69.2084 125.436 69.2391 125.442 69.2594C125.429 69.2863 125.412 69.303 125.391 69.3096C125.31 69.336 125.209 69.3352 125.088 69.3073C124.946 69.286 124.805 69.2309 124.664 69.1422C124.12 68.8479 123.658 68.4262 123.277 67.8768C122.883 67.3543 122.574 66.7482 122.35 66.0584C122.093 65.2671 121.985 64.4162 122.025 63.5058C122.066 62.5953 122.265 61.6894 122.623 60.7881C123.139 59.4765 123.7 58.3406 124.308 57.3805C124.922 56.4407 125.51 55.5209 126.07 54.6211C125.985 53.3252 125.819 52.0893 125.572 50.9136C125.383 49.9879 125.19 49.187 124.993 48.5108C124.816 47.8281 124.645 47.2331 124.48 46.7259C124.315 46.2187 124.153 45.789 123.994 45.437C123.835 45.085 123.685 44.7634 123.546 44.4723C123.539 44.452 123.546 44.4385 123.567 44.4319C123.668 44.399 123.921 44.4515 124.324 44.5895C124.728 44.7275 125.013 44.9826 125.179 45.3549C125.437 45.9438 125.679 46.5832 125.903 47.273C126.166 48.0846 126.393 48.9532 126.581 49.8789C126.79 50.798 126.965 51.7506 127.106 52.7366C127.408 52.0778 127.68 51.3613 127.922 50.5873C128.177 49.7865 128.37 48.894 128.499 47.91C128.541 47.627 128.613 47.469 128.715 47.4361C128.796 47.4097 128.86 47.4675 128.906 47.6095C128.978 47.8327 128.982 48.1903 128.918 48.6823C128.874 49.1677 128.792 49.6764 128.674 50.2085C128.555 50.7406 128.416 51.2118 128.258 51.6221C128.134 51.9989 127.983 52.3621 127.804 52.7116C127.626 53.061 127.438 53.4138 127.24 53.7698C127.438 55.2758 127.575 56.7678 127.651 58.2458C127.728 59.7239 127.758 61.0936 127.741 62.355C127.745 63.6099 127.72 64.6723 127.667 65.5421C127.64 66.4257 127.605 67.009 127.562 67.292C127.464 67.8175 127.323 68.2111 127.138 68.4728C126.954 68.7345 126.751 68.9016 126.527 68.9742ZM136.8 50.2597C136.577 50.3322 136.307 50.3302 135.991 50.2535C135.668 50.1566 135.422 50.0232 135.255 49.8533C135.104 49.3866 134.957 48.7278 134.815 47.8766C134.673 47.0255 134.534 46.1508 134.4 45.2525C134.278 44.3273 134.18 43.5406 134.104 42.8924C133.923 43.5792 133.708 44.3331 133.459 45.1543C133.21 45.9755 132.938 46.7593 132.642 47.506C132.34 48.2323 131.997 48.8706 131.615 49.4209C131.247 49.9443 130.85 50.2752 130.424 50.4137C129.998 50.5521 129.617 50.5189 129.281 50.3139C128.939 50.0887 128.705 49.7833 128.58 49.3978C128.547 49.2964 128.524 49.1579 128.512 48.9824C128.391 47.9898 128.463 47.002 128.727 46.019C129.004 45.0092 129.386 44.0777 129.871 43.2246C130.377 42.3649 130.915 41.6404 131.487 41.051C132.058 40.4617 132.587 40.0879 133.074 39.9297C133.439 39.811 133.81 39.7801 134.188 39.8369C134.579 39.8669 134.982 40.0049 135.399 40.2509C135.48 40.292 135.533 40.3531 135.559 40.4343C135.592 40.5357 135.564 40.6569 135.476 40.7979C135.492 41.331 135.531 41.9689 135.593 42.7114C135.668 43.4271 135.754 44.1732 135.849 44.9498C135.958 45.6995 136.071 46.3918 136.187 47.0269C136.304 47.6619 136.415 48.1418 136.52 48.4664C136.593 48.6896 136.66 48.7913 136.721 48.7715C136.883 48.7188 137.03 48.4804 137.161 48.0564C137.313 47.6257 137.438 47.1477 137.536 46.6222C137.635 46.0968 137.719 45.6319 137.79 45.2276C137.881 44.8168 137.946 44.6048 137.987 44.5916C138.048 44.5718 138.105 44.6431 138.157 44.8054C138.269 45.1503 138.296 45.6127 138.238 46.1924C138.179 46.7722 138.07 47.3684 137.911 47.9811C137.764 48.5669 137.585 49.085 137.373 49.5354C137.174 49.9589 136.983 50.2004 136.8 50.2597ZM130.301 49.2085C130.585 49.1162 130.888 48.8385 131.208 48.3755C131.549 47.9058 131.871 47.3416 132.172 46.6827C132.495 46.0173 132.787 45.328 133.048 44.6148C133.33 43.8951 133.551 43.2289 133.711 42.6162C133.885 41.9766 133.99 41.4714 134.026 41.1006C133.62 41.2325 133.203 41.5363 132.775 42.012C132.339 42.4675 131.924 43.0175 131.528 43.6622C131.125 44.2865 130.779 44.9484 130.49 45.6479C130.195 46.327 129.988 46.9663 129.869 47.5659C129.749 48.1654 129.749 48.6477 129.868 49.0129C129.934 49.2158 130.078 49.281 130.301 49.2085Z" fill="white"/>
</svg>
